<svg width="88" height="96" viewBox="0 0 88 96" fill="none" xmlns="http://www.w3.org/2000/svg">
<path d="M49.6934 68.8V78H18.3334V23.6H27.9334V68.8H49.6934ZM53.4402 78.8V69.6C57.7602 69.6 60.8802 68.8 62.8002 67.2C64.7736 65.5467 65.7602 62.64 65.7602 58.48V23.6H75.3602V58.48C75.3602 62.64 74.7202 66.24 73.4402 69.28C72.1602 72.32 69.9202 74.6667 66.7202 76.32C63.5736 77.9733 59.1469 78.8 53.4402 78.8Z" fill="white"/>
<rect y="41" width="87.9999" height="16" fill="white"/>
<path d="M11.1642 54H5.19277V43H6.49706V53.8429H11.1642V54ZM13.0646 52.1929C13.0646 53.0205 13.2846 53.5495 13.7246 53.78C13.9342 53.8848 14.2013 53.9371 14.5261 53.9371C15.1861 53.9371 15.7727 53.6857 16.2861 53.1829C16.8099 52.68 17.0927 52.2138 17.1346 51.7843V46.1429H18.2346V52.8843C18.2346 53.1881 18.2923 53.4238 18.4075 53.5914C18.5332 53.7486 18.6589 53.8324 18.7847 53.8429L18.9575 53.8743H19.4447V54H18.4861C18.0566 54 17.7266 53.9057 17.4961 53.7171C17.2761 53.5286 17.1608 53.34 17.1504 53.1514L17.1346 52.8843V52.2086C16.9461 52.659 16.6108 53.0833 16.1289 53.4814C15.647 53.869 15.118 54.0629 14.5418 54.0629C13.9761 54.0629 13.5099 54.0105 13.1432 53.9057C12.787 53.7905 12.5304 53.6333 12.3732 53.4343C12.1008 53.1095 11.9646 52.6905 11.9646 52.1771V46.1429H13.0646V52.1929ZM20.1576 54V53.8743C20.3776 53.8743 20.5976 53.7905 20.8176 53.6229C21.048 53.4552 21.2209 53.2876 21.3361 53.12L23.3004 50.2286L20.5033 46.1429H21.6504L24.0547 49.6471L26.3804 46.1429H26.5376L24.1176 49.7571L27.0404 54H25.8933L23.3633 50.3229L21.6661 52.8686C21.6452 52.9 21.619 52.9419 21.5876 52.9943C21.5561 53.0467 21.488 53.1357 21.3833 53.2614C21.2785 53.3871 21.1685 53.4971 21.0533 53.5914C20.739 53.8638 20.4404 54 20.1576 54ZM28.6554 50.1657C28.6554 51.4648 28.8807 52.4181 29.3311 53.0257C29.7921 53.6333 30.3945 53.9371 31.1383 53.9371C32.1859 53.9371 33.1183 53.78 33.9354 53.4657L33.9826 53.5757C33.1445 53.9005 32.1964 54.0629 31.1383 54.0629C30.0907 54.0629 29.2369 53.7486 28.5769 53.12C27.9169 52.4914 27.5869 51.5224 27.5869 50.2129C27.5869 48.9033 27.9326 47.8871 28.624 47.1643C29.3154 46.4414 30.1954 46.08 31.264 46.08C32.1231 46.08 32.8459 46.3367 33.4326 46.85C34.0192 47.3633 34.3126 48.1229 34.3126 49.1286C34.3126 49.181 34.3126 49.2333 34.3126 49.2857H28.7026C28.6711 49.5686 28.6554 49.8619 28.6554 50.1657ZM33.244 49.16C33.2335 48.1543 33.0397 47.4105 32.6626 46.9286C32.2854 46.4467 31.7983 46.2057 31.2011 46.2057C30.604 46.2057 30.0697 46.4676 29.5983 46.9914C29.1373 47.5152 28.844 48.2381 28.7183 49.16H33.244ZM40.2031 43.1571V43H43.0002V51.9257C43.0002 52.7533 42.8326 53.3086 42.4974 53.5914C42.1621 53.8638 41.6541 54 40.9731 54C40.3026 54 39.7055 53.9005 39.1817 53.7014L39.2288 53.5757C39.7317 53.7748 40.2502 53.8743 40.7845 53.8743C41.1407 53.8743 41.3764 53.7224 41.4917 53.4186C41.6174 53.1148 41.6802 52.6224 41.6802 51.9414V43.1571H40.2031ZM45.7969 50.1657C45.7969 51.4648 46.0221 52.4181 46.4726 53.0257C46.9336 53.6333 47.5359 53.9371 48.2798 53.9371C49.3274 53.9371 50.2598 53.78 51.0769 53.4657L51.124 53.5757C50.2859 53.9005 49.3379 54.0629 48.2798 54.0629C47.2321 54.0629 46.3783 53.7486 45.7183 53.12C45.0583 52.4914 44.7283 51.5224 44.7283 50.2129C44.7283 48.9033 45.074 47.8871 45.7655 47.1643C46.4569 46.4414 47.3369 46.08 48.4055 46.08C49.2645 46.08 49.9874 46.3367 50.574 46.85C51.1607 47.3633 51.454 48.1229 51.454 49.1286C51.454 49.181 51.454 49.2333 51.454 49.2857H45.844C45.8126 49.5686 45.7969 49.8619 45.7969 50.1657ZM50.3855 49.16C50.375 48.1543 50.1812 47.4105 49.804 46.9286C49.4269 46.4467 48.9398 46.2057 48.3426 46.2057C47.7455 46.2057 47.2112 46.4676 46.7398 46.9914C46.2788 47.5152 45.9855 48.2381 45.8598 49.16H50.3855ZM63.2438 46.2371L63.3381 46.1429C63.38 46.1638 63.4324 46.2267 63.4952 46.3314C63.5686 46.4362 63.6105 46.5305 63.6209 46.6143C63.6419 46.6981 63.6524 46.7767 63.6524 46.85C63.6524 47.1329 63.5895 47.421 63.4638 47.7143L60.6038 54H60.4467L58.1838 47.9186L55.4181 54H55.2609L52.3381 46.1429H53.4381L55.8424 52.6486L58.1052 47.73L57.5238 46.1429H58.6238L61.0281 52.6486L63.3067 47.7143C63.4324 47.4943 63.4952 47.2324 63.4952 46.9286C63.4952 46.6248 63.4114 46.3943 63.2438 46.2371ZM65.5932 50.1657C65.5932 51.4648 65.8185 52.4181 66.2689 53.0257C66.7299 53.6333 67.3323 53.9371 68.0761 53.9371C69.1237 53.9371 70.0561 53.78 70.8732 53.4657L70.9204 53.5757C70.0823 53.9005 69.1342 54.0629 68.0761 54.0629C67.0285 54.0629 66.1746 53.7486 65.5146 53.12C64.8546 52.4914 64.5246 51.5224 64.5246 50.2129C64.5246 48.9033 64.8704 47.8871 65.5618 47.1643C66.2532 46.4414 67.1332 46.08 68.2018 46.08C69.0608 46.08 69.7837 46.3367 70.3704 46.85C70.957 47.3633 71.2504 48.1229 71.2504 49.1286C71.2504 49.181 71.2504 49.2333 71.2504 49.2857H65.6404C65.6089 49.5686 65.5932 49.8619 65.5932 50.1657ZM70.1818 49.16C70.1713 48.1543 69.9775 47.4105 69.6004 46.9286C69.2232 46.4467 68.7361 46.2057 68.1389 46.2057C67.5418 46.2057 67.0075 46.4676 66.5361 46.9914C66.0751 47.5152 65.7818 48.2381 65.6561 49.16H70.1818ZM74.3622 54C73.4403 54 72.8588 53.759 72.6179 53.2771C72.5655 53.1724 72.5393 53.0781 72.5393 52.9943V42.23H73.6393V52.8843C73.6393 53.1881 73.6969 53.4238 73.8122 53.5914C73.9379 53.7486 74.0636 53.8324 74.1893 53.8429L74.3622 53.8743H74.8493V54H74.3622ZM80.4692 46.6929C80.3016 46.5567 80.0292 46.4414 79.6521 46.3471C79.2854 46.2529 79.0078 46.2057 78.8192 46.2057C78.6307 46.2057 78.5207 46.2057 78.4892 46.2057C77.9235 46.2162 77.515 46.3629 77.2635 46.6457C77.0121 46.9181 76.8864 47.2271 76.8864 47.5729C76.8864 47.9186 76.9964 48.2119 77.2164 48.4529C77.4364 48.6833 77.7088 48.8667 78.0335 49.0029C78.3688 49.1286 78.725 49.2752 79.1021 49.4429C79.4897 49.6105 79.8459 49.7833 80.1707 49.9614C80.5059 50.129 80.7835 50.3805 81.0035 50.7157C81.2235 51.0405 81.3335 51.449 81.3335 51.9414C81.3335 52.4338 81.1607 52.8529 80.815 53.1986C80.4692 53.5443 80.0816 53.7748 79.6521 53.89C79.2331 54.0052 78.7773 54.0629 78.285 54.0629C77.2164 54.0629 76.415 53.8271 75.8807 53.3557L75.975 53.2614C76.1845 53.4605 76.4935 53.6229 76.9021 53.7486C77.3211 53.8743 77.7245 53.9371 78.1121 53.9371C78.7302 53.9371 79.2383 53.7695 79.6364 53.4343C80.045 53.0886 80.2492 52.6643 80.2492 52.1614C80.2492 51.6481 80.0973 51.2395 79.7935 50.9357C79.4897 50.6214 79.1178 50.3805 78.6778 50.2129C78.2483 50.0348 77.8135 49.8619 77.3735 49.6943C76.9335 49.5162 76.5616 49.2752 76.2578 48.9714C75.954 48.6571 75.8021 48.2957 75.8021 47.8871C75.8021 47.4786 75.8964 47.1486 76.085 46.8971C76.2735 46.6352 76.525 46.4519 76.8392 46.3471C77.3735 46.169 77.9078 46.08 78.4421 46.08C79.3431 46.08 80.045 46.2476 80.5478 46.5829L80.4692 46.6929Z" fill="black"/>
</svg>
